================================================================================================
================================================================================================



Tangled.2010.720p.BRRip.x264.AAC-Dita496 {1337x}
------------------------------------------------



Tangled (2010)
--------------

Release Date: March 04th, 2011

Release Type: Movie

Release Size: 2.26027 GB

Language: English

Genre: Animation, Comedy, Family 

Runtime: 1hr 40mins

IMDB Rating: 8.0/10 (20,058 Votes)
 
http://www.imdb.com/title/tt0398286/


Sample Included: Yes

Subtitles: None

Plot Summary: The magically long-haired Rapunzel has spent her entire life in a tower, but now
that a runaway thief has stumbled upon her, she is about to discover the world for the first
time, and who she really is. 



Release Notes:
--------------

This release is Pc, PS3 and Western Digital HD TV Media Player compatible. Play on your PC With

VLC Media Player. Use ConvertXtoDVD to convert and burn this to DVD to play on your home DVD

player. Enjoy this release. :)



Technical Info:
---------------

Source: Tangled.2010.BluRay.1080p.DTS.x264-CHD  Thanks :)

General
Complete name                    : Tangled.2010.720p.BRRip.x264.AAC-Dita496.mp4
Format                           : MPEG-4
Format profile                   : Base Media
Codec ID                         : isom
File size                        : 2.23 GiB
Duration                         : 1h 40mn
Overall bit rate                 : 3 182 Kbps
Encoded date                     : UTC 2011-03-01 23:04:42
Tagged date                      : UTC 2011-03-01 23:04:42

Video
ID                               : 1
Format                           : AVC
Format/Info                      : Advanced Video Codec
Format profile                   : High@L4.1
Format settings, CABAC           : Yes
Format settings, ReFrames        : 3 frames
Codec ID                         : avc1
Codec ID/Info                    : Advanced Video Coding
Duration                         : 1h 40mn
Bit rate mode                    : Variable
Bit rate                         : 2 711 Kbps
Maximum bit rate                 : 14.5 Mbps
Width                            : 1 280 pixels
Height                           : 720 pixels
Display aspect ratio             : 16:9
Frame rate mode                  : Constant
Frame rate                       : 23.976 fps
Color space                      : YUV
Chroma subsampling               : 4:2:0
Bit depth                        : 8 bits
Scan type                        : Progressive
Bits/(Pixel*Frame)               : 0.123
Stream size                      : 1.90 GiB (85%)
Writing library                  : x264 core 65 r999kMod cc51047
Encoded date                     : UTC 2011-03-01 23:04:42
Tagged date                      : UTC 2011-03-01 23:06:08

Audio
ID                               : 2
Format                           : AAC
Format/Info                      : Advanced Audio Codec
Format profile                   : LC
Codec ID                         : 40
Duration                         : 1h 40mn
Bit rate mode                    : Variable
Bit rate                         : 467 Kbps
Maximum bit rate                 : 716 Kbps
Channel(s)                       : 6 channels
Channel positions                : Front: L C R, Side: L R, LFE
Sampling rate                    : 44.1 KHz
Compression mode                 : Lossy
Stream size                      : 335 MiB (15%)
Encoded date                     : UTC 2011-03-01 23:05:59
Tagged date                      : UTC 2011-03-01 23:06:08



SCREENSHOTS:
------------

 
http://img27.imageshack.us/img27/5125/vlcsnap00001xw.png

 
http://img14.imageshack.us/img14/5638/vlcsnap00004m.png

 
http://img232.imageshack.us/img232/7245/vlcsnap00006s.png

 
http://img580.imageshack.us/img580/7393/vlcsnap00007s.png

 
http://img545.imageshack.us/img545/3224/vlcsnap00008o.png

 
http://img690.imageshack.us/img690/8765/vlcsnap00010vr.png



================================================================================================
================================================================================================